<?xml version="1.0" encoding="UTF-8" standalone="no"?>
<svg
   xmlns:dc="http://purl.org/dc/elements/1.1/"
   xmlns:cc="http://creativecommons.org/ns#"
   xmlns:rdf="http://www.w3.org/1999/02/22-rdf-syntax-ns#"
   xmlns:svg="http://www.w3.org/2000/svg"
   xmlns="http://www.w3.org/2000/svg"
   xmlns:sodipodi="http://sodipodi.sourceforge.net/DTD/sodipodi-0.dtd"
   xmlns:inkscape="http://www.inkscape.org/namespaces/inkscape"
   version="1.1"
   viewBox="0 0 299.99835 97.972091"
   height="97.972092"
   width="299.99835"
   id="svg20"
   sodipodi:docname="atos.svg"
   inkscape:version="1.0.2 (e86c870879, 2021-01-15, custom)">
  <metadata
     id="metadata24">
    <rdf:RDF>
      <cc:Work
         rdf:about="">
        <dc:format>image/svg+xml</dc:format>
        <dc:type
           rdf:resource="http://purl.org/dc/dcmitype/StillImage" />
      </cc:Work>
    </rdf:RDF>
  </metadata>
  <sodipodi:namedview
     pagecolor="#ffffff"
     bordercolor="#666666"
     borderopacity="1"
     objecttolerance="10"
     gridtolerance="10"
     guidetolerance="10"
     inkscape:pageopacity="0"
     inkscape:pageshadow="2"
     inkscape:window-width="776"
     inkscape:window-height="480"
     id="namedview22"
     showgrid="false"
     inkscape:zoom="0.44677419"
     inkscape:cx="114.67382"
     inkscape:cy="-8.4554312"
     inkscape:window-x="0"
     inkscape:window-y="1080"
     inkscape:window-maximized="0"
     inkscape:current-layer="svg20" />
  <defs
     id="defs2" />
  <g
     transform="translate(-2687.8515,-1683.8348)"
     id="g18">
    <g
       transform="matrix(0.90534,0,0,-0.90534,2652,2152.8)"
       id="g16">
      <g
         transform="translate(376.65,418.82)"
         id="g6">
        <path
           d="m -38.344,54.509 c -17.511,5.66 -22.48,10.53 -22.48,15.68 0,7.27 8.649,11.61 21.179,11.61 4.86,0 8.371,-0.43 10.82,-0.97 l -0.1,-14.43 16.51,-0.28 1.17,28.96 c -7.829,1.88 -19.799,4.1 -29.82,4.1 -23.18,0 -41.489,-10.98 -41.489,-30.9 0,-18.9 12.72,-25.88 35.239,-32.91 17.36,-5.42 19.21,-9.55 19.21,-14.89 0,-6.13 -8.56,-10.68 -19.48,-10.68 -11.2,0 -23.589,3.8 -31.19,6.95 -2.09,-4.41 -6.54,-11.88 -9.469,-16.13 11.279,-6.21 24.79,-9.6 39.879,-9.6 23.091,0 42.6804,10.95 42.6804,32.59 0,16.86 -10.1094,23.67 -32.6594,30.9"
           style="fill:#0073ae"
           id="path4" />
      </g>
      <g
         transform="translate(350.75,417.05)"
         id="g10">
        <path
           d="m -271.5,38.611 14.63,41.26 14.61,-41.26 z m 30.94,61.659 h -44.85 V 87.111 h 11.26 L -302.21,7.8712 h -8.94 v -13.17 h 37.62 v 13.17 h -8.83 l 5.1,14.4598 h 40.8 l 5.14,-14.4598 h -8.31 v -13.17 h 40.27 v 13.17 h -8.4 z"
           style="fill:#0073ae"
           id="path8" />
      </g>
      <g
         transform="translate(369.92,416.25)"
         id="g14">
        <path
           d="m -98.986,31.323 c -11.374,3.34 -19.734,14.42 -19.734,27.6 0,3.04 0.46,6.02 1.3,8.76 11.36,-3.33 19.734,-14.41 19.734,-27.6 0,-3.06 -0.45,-6 -1.3,-8.76 m -7.474,51.63 v 0.02 c -5.56,2.33 -11.67,3.63 -18.09,3.63 -1.66,0 -3.28,-0.08 -4.89,-0.23 -5.62,-7.71 -8.95,-17.22 -8.95,-27.45 0,-19.27 11.75,-35.82 28.43,-42.86 -4.21,-2.92 -9.23,-4.65 -14.59,-4.65 -14.86,0 -26.85,12.86 -26.85,28.67 0,6.78 2.23,13.09 5.97,17.99 0,7.27 2.57,20.48 6.46,26.25 -18.75,-6.03 -32.12,-23.84 -32.12,-44.24 0,-8.12 2.07,-15.71 5.71,-22.36 -4.41,-4.65 -10.37,-7.32 -16.04,-7.32 -7.68,0 -13.21,6.01 -13.21,15.05 v 41.41 h 23.98 v 16.46 h -23.98 v 17.787 h -21.53 V 83.323 h -15.8 v -16.46 h 15.8 v -43.52 c 0,-22.34982 15.55,-29.6998 30.67,-29.6998 12.69,0 22.98,5.98998 28.71,12.9 8.36,-8.04 19.71,-13.01 32.23,-13.01 25.334,0 46.534,20.7298 46.534,46.5498 0,19.27 -11.75,35.81 -28.444,42.87"
           style="fill:#0073ae"
           id="path12" />
      </g>
    </g>
  </g>
</svg>
