<?xml version="1.0" encoding="UTF-8" standalone="no"?>
<svg
   xmlns:dc="http://purl.org/dc/elements/1.1/"
   xmlns:cc="http://creativecommons.org/ns#"
   xmlns:rdf="http://www.w3.org/1999/02/22-rdf-syntax-ns#"
   xmlns:svg="http://www.w3.org/2000/svg"
   xmlns="http://www.w3.org/2000/svg"
   xmlns:sodipodi="http://sodipodi.sourceforge.net/DTD/sodipodi-0.dtd"
   xmlns:inkscape="http://www.inkscape.org/namespaces/inkscape"
   id="Calque_1"
   data-name="Calque 1"
   viewBox="0 0 265.61591 83.513344"
   version="1.1"
   sodipodi:docname="lexfo.svg"
   width="265.61591"
   height="83.513344"
   inkscape:version="1.0.2 (e86c870879, 2021-01-15, custom)">
  <metadata
     id="metadata31">
    <rdf:RDF>
      <cc:Work
         rdf:about="">
        <dc:format>image/svg+xml</dc:format>
        <dc:type
           rdf:resource="http://purl.org/dc/dcmitype/StillImage" />
      </cc:Work>
    </rdf:RDF>
  </metadata>
  <sodipodi:namedview
     pagecolor="#ffffff"
     bordercolor="#666666"
     borderopacity="1"
     objecttolerance="10"
     gridtolerance="10"
     guidetolerance="10"
     inkscape:pageopacity="0"
     inkscape:pageshadow="2"
     inkscape:window-width="776"
     inkscape:window-height="480"
     id="namedview29"
     showgrid="false"
     inkscape:zoom="0.97934289"
     inkscape:cx="96.082406"
     inkscape:cy="110.56666"
     inkscape:window-x="0"
     inkscape:window-y="1080"
     inkscape:window-maximized="0"
     inkscape:current-layer="Calque_1" />
  <defs
     id="defs4">
    <style
       id="style2">.cls-1{fill:#3c3c3b;}.cls-2{fill:#dadada;}.cls-3{fill:#b22027;}.cls-4{fill:#cb1411;}.cls-5{fill:#9d1813;}.cls-6{fill:#cb1925;}.cls-7{fill:#7d1719;}</style>
  </defs>
  <polygon
     class="cls-1"
     points="177.66,95.42 177.66,126.67 193.34,126.67 193.34,134.99 168.22,134.99 168.22,95.42 "
     id="polygon6"
     transform="translate(-67.194086,-53.42)" />
  <polygon
     class="cls-1"
     points="220.81,95.42 220.81,103.52 206.98,103.52 206.98,110.82 218.44,110.82 218.44,118.92 206.98,118.92 206.98,126.9 220.81,126.9 220.81,134.99 197.54,134.99 197.54,95.42 "
     id="polygon8"
     transform="translate(-67.194086,-53.42)" />
  <polygon
     class="cls-1"
     points="234.12,134.99 223.72,134.99 237.88,114.53 223.83,95.42 235.58,95.42 243.56,106.78 251.32,95.42 261.49,95.42 248.84,113.52 264.36,134.99 252.95,134.99 243.17,121.5 "
     id="polygon10"
     transform="translate(-67.194086,-53.42)" />
  <polygon
     class="cls-1"
     points="288.82,111.5 288.82,119.59 277.36,119.59 277.36,134.99 267.92,134.99 267.92,95.42 291.19,95.42 291.19,103.52 277.36,103.52 277.36,111.5 "
     id="polygon12"
     transform="translate(-67.194086,-53.42)" />
  <path
     class="cls-1"
     d="m 245.94591,49.65 c -6,0 -10,4.83 -10,12.14 0,7.31 4,12.14 10,12.14 6,0 10,-4.83 10,-12.14 0,-7.31 -4,-12.14 -10,-12.14 m 0,33.27 c -11.08,0 -19.68,-9.22 -19.68,-21.13 0,-11.91 8.6,-21.14 19.68,-21.14 11.08,0 19.67,9.22 19.67,21.14 0,11.92 -8.6,21.13 -19.67,21.13"
     id="path14" />
  <path
     class="cls-2"
     d="m 11.895914,17.88 a 38,38 0 1 0 53.79,0 38.05,38.05 0 0 0 -53.79,0"
     id="path16" />
  <path
     class="cls-3"
     d="m 67.395914,63.51 c -6.37,-6.93 -14.59,-15.48 -23.24,-24.09 -9.77,-9.78 -32.71,-32.51 -34.6600001,-32.51 a 0.16,0.16 0 0 0 -0.11,0 42.18,42.18 0 0 0 -4.93,4.31 45.74,45.74 0 0 0 -4.42000004,5 c -0.51,0.51 4.51000004,6.21 8.81000004,10.9 6.0800001,6.62 14.3700001,15.21 23.3400001,24.19 8.97,8.98 17.31,17.07 23.52,22.86 4.57,4.26 10.21,9.33 11.14,9.33 a 0.12,0.12 0 0 0 0.11,0 28.89,28.89 0 0 0 5,-4.11 34.52,34.52 0 0 0 4.32,-5.24 c 0.39,-0.47 -6.11,-7.63 -8.92,-10.68"
     id="path18" />
  <path
     class="cls-4"
     d="m 83.555914,43.82 a 44.78,44.78 0 0 0 -43.87,-43.8 h -0.07 0.06 a 285.65,285.65 0 0 1 23.41,20.43 290.36,290.36 0 0 1 20.43,23.35 v 0 z"
     id="path20" />
  <path
     class="cls-5"
     d="m 82.555914,41.45 a 56.22,56.22 0 0 0 -4.05,-5.77 189.7,189.7 0 0 0 -14.91,-16.66 175.52,175.52 0 0 0 -15.29,-13.74 c -4.28,-3.35 -7.4,-5.27 -8.57,-5.27 a 0.57,0.57 0 0 0 -0.39,0.12 c -0.69,0.69 1.8,4.15 4,6.93 v 0 c 0.6,0.07 1.14,0.15 1.8,0.26 v 0 0 c 2.24,0.36 9.46,5.56 17.23,13.33 a 115.68,115.68 0 0 1 9.72,10.93 c 2.46,3.2 4,5.69 4.14,6.82 v 0.06 0 c 0.1,0.61 0.19,1.22 0.26,1.81 v 0 h 0.1 c 3.39,2.7 5.56,4.06 6.46,4.06 a 0.44,0.44 0 0 0 0.35,-0.12 c 0.31,-0.3 0,-1.24 -0.88,-2.77"
     id="path22" />
  <path
     class="cls-6"
     d="m 83.255914,54.22 c -0.09,-2.78 -10.49,-16.18 -24.26,-30 -13.77,-13.82 -27.19,-24.13 -29.96,-24.22 h -0.13 a 39.67,39.67 0 0 0 -12.86,3.9 v 0 l 31.76,28.68 14.35,14.67 17.47,20.33 v 0 0 a 36.36,36.36 0 0 0 3.6,-13.26 z"
     id="path24" />
  <path
     class="cls-7"
     d="m 71.805914,56.23 c -6,-7.22 -13.93,-15.85 -21.76,-23.68 -7.59,-7.59 -15.56,-14.92 -22.44,-20.64 -6,-5 -10.36,-8.07 -11.43,-8.07 a 0.28,0.28 0 0 0 -0.21,0.07 c -0.47,0.47 -0.22,1.7 4.77,7.39 v 0 l 0.21,-0.09 a 0.62,0.62 0 0 1 0.32,-0.06 3.9,3.9 0 0 1 2,0.78 l 0.59,0.42 c 2.23,1.45 12.25,10.34 24.54,22.63 11.62,11.62 21.68,22.67 23.4,25.7 l 0.14,0.26 c 0.71,1.2 0.6,1.46 0.52,1.65 l -0.13,0.21 v 0 0 c 5,4.41 6.37,4.91 7,4.91 a 0.61,0.61 0 0 0 0.44,-0.16 c 0.53,-0.54 -2.49,-4.91 -7.88,-11.4"
     id="path26" />
</svg>
