<?xml version="1.0" encoding="UTF-8" standalone="no"?> <svg xmlns:dc="http://purl.org/dc/elements/1.1/" xmlns:cc="http://creativecommons.org/ns#" xmlns:rdf="http://www.w3.org/1999/02/22-rdf-syntax-ns#" xmlns:svg="http://www.w3.org/2000/svg" xmlns="http://www.w3.org/2000/svg" xmlns:sodipodi="http://sodipodi.sourceforge.net/DTD/sodipodi-0.dtd" xmlns:inkscape="http://www.inkscape.org/namespaces/inkscape" version="1.1" id="Page_01" x="0px" y="0px" viewBox="0 0 299.42999 103.89" xml:space="preserve" sodipodi:docname="viveris.svg" width="299.42999" height="103.89" inkscape:version="1.0.2 (e86c870879, 2021-01-15, custom)"><metadata id="metadata75"><rdf:RDF><cc:Work rdf:about=""><dc:format>image/svg+xml</dc:format><dc:type rdf:resource="http://purl.org/dc/dcmitype/StillImage" /></cc:Work></rdf:RDF></metadata><defs id="defs73" /><sodipodi:namedview pagecolor="#ffffff" bordercolor="#666666" borderopacity="1" objecttolerance="10" gridtolerance="10" guidetolerance="10" inkscape:pageopacity="0" inkscape:pageshadow="2" inkscape:window-width="1920" inkscape:window-height="1017" id="namedview71" showgrid="false" inkscape:zoom="3.0777778" inkscape:cx="152.88" inkscape:cy="48.935002" inkscape:window-x="-8" inkscape:window-y="1072" inkscape:window-maximized="1" inkscape:current-layer="Logo_Viveris" /> <style type="text/css" id="style2"> .st0{fill:none;} .st1{fill:#FE5045;} </style> <g id="Logo_Viveris" transform="translate(-27.12,-33.27)"> <g id="Zone_de_sécurité"> <rect y="0" class="st0" width="360" height="124.73" id="rect4" x="0" /> </g> <path id="S" class="st1" d="m 293.59,74.64 c 0,0 1.59,1.02 1.83,1.14 0.32,0.16 6.14,4.44 11.48,4.44 3.23,0 5.58,-2.02 5.58,-4.85 0,-3.39 -2.83,-5.98 -8.32,-8.16 -6.95,-2.75 -15.68,-8.16 -15.68,-17.86 0,-8 6.22,-16.08 18.67,-16.08 8.41,0 14.87,4.28 17.3,6.06 0.65,0.47 1.49,1.06 1.49,1.06 l -6.51,9.84 c 0,0 -1.03,-0.78 -1.36,-1.04 -0.73,-0.4 -6.63,-4.85 -11.56,-4.85 -2.91,0 -5.09,1.94 -5.09,4.12 0,2.99 2.43,5.25 8.81,7.84 6.3,2.5 16.32,7.43 16.32,18.43 0,8.32 -7.19,16.73 -19.07,16.73 -10.51,0 -16.32,-4.36 -18.18,-6.22 -0.57,-0.57 -1.07,-1.08 -1.07,-1.08 z" /> <path id="I_1_" class="st1" d="M 275.39,90.65 H 262.62 V 56.57 h 12.77 z m 0,-56.61 h -12.77 v 11.88 h 12.77 z" /> <path id="R" class="st1" d="m 237.22,67.78 c 7.03,-2.83 11.96,-8.81 11.96,-16.24 0,-9.62 -6.9,-17.46 -17.62,-17.46 h -22.41 v 11.59 h 21.36 c 4.2,0 6.14,2.72 6.14,6.11 0,3.39 -2.06,6.62 -6.14,6.62 H 218.6 l 17.36,32.25 h 13.6 z" /> <path id="E" class="st1" d="M 198.66,90.65 H 162.1 V 79.06 h 36.56 z M 185.86,56.57 H 162.1 v 11.59 h 23.76 V 56.57 Z m 12.8,-22.49 H 162.1 v 11.59 h 36.56 z" /> <polygon id="V_1_" class="st1" points="134.08,64.18 119.96,34.08 105.91,34.08 132.51,91.46 135.24,91.46 151.57,56.57 144.61,41.68 " /> <path id="I" class="st1" d="M 96.12,90.65 H 83.35 V 56.57 h 12.77 z m 0,-56.61 H 83.35 v 11.88 h 12.77 z" /> <polygon id="V" class="st1" points="55.29,64.18 41.17,34.08 27.12,34.08 53.72,91.46 56.45,91.46 72.78,56.57 65.82,41.68 " /> </g> <g id="Baseline_Viveris" transform="translate(-27.12,-33.27)"> <path class="st1" d="m 53.52,118.99 h 2.55 v 14.02 h -2.55 z" id="path15" /> <path class="st1" d="m 59.21,122.94 h 2.41 v 1.17 c 0,0.38 -0.04,0.69 -0.04,0.69 h 0.04 c 0.43,-0.85 1.54,-2.09 3.57,-2.09 2.23,0 3.5,1.16 3.5,3.83 v 6.48 H 66.2 v -5.96 c 0,-1.22 -0.32,-2.05 -1.6,-2.05 -1.34,0 -2.33,0.85 -2.71,2.05 -0.14,0.41 -0.18,0.87 -0.18,1.34 v 4.62 H 59.2 v -10.08 z" id="path17" /> <path class="st1" d="m 71.3,122.94 h 2.41 v 1.17 c 0,0.38 -0.04,0.69 -0.04,0.69 h 0.04 c 0.43,-0.85 1.54,-2.09 3.57,-2.09 2.23,0 3.5,1.16 3.5,3.83 v 6.48 h -2.49 v -5.96 c 0,-1.22 -0.32,-2.05 -1.6,-2.05 -1.34,0 -2.33,0.85 -2.71,2.05 -0.14,0.41 -0.18,0.87 -0.18,1.34 v 4.62 h -2.5 z" id="path19" /> <path class="st1" d="m 88.16,122.71 c 3.08,0 5.55,2.19 5.55,5.27 0,3.1 -2.47,5.27 -5.53,5.27 -3.08,0 -5.55,-2.17 -5.55,-5.27 0,-3.08 2.47,-5.27 5.53,-5.27 z m 0.02,8.41 c 1.62,0 2.98,-1.26 2.98,-3.14 0,-1.86 -1.36,-3.14 -2.98,-3.14 -1.64,0 -3,1.28 -3,3.14 0,1.87 1.36,3.14 3,3.14 z" id="path21" /> <path class="st1" d="m 94.33,122.94 h 2.65 l 2.09,6.24 c 0.2,0.59 0.34,1.52 0.36,1.52 h 0.04 c 0.02,0 0.16,-0.93 0.36,-1.52 l 2.09,-6.24 h 2.65 l -3.61,10.07 H 98 Z" id="path23" /> <path class="st1" d="m 110.34,122.71 c 2.9,0 4.46,2.11 4.46,4.78 0,0.3 -0.06,0.97 -0.06,0.97 h -6.95 c 0.16,1.76 1.52,2.67 3.02,2.67 1.62,0 2.9,-1.11 2.9,-1.11 l 0.97,1.8 c 0,0 -1.54,1.44 -4.05,1.44 -3.34,0 -5.41,-2.41 -5.41,-5.27 0.01,-3.11 2.12,-5.28 5.12,-5.28 z m 1.94,4.02 c -0.04,-1.36 -0.89,-2.09 -1.99,-2.09 -1.28,0 -2.17,0.79 -2.41,2.09 z" id="path25" /> <path class="st1" d="m 116.86,122.94 h 2.41 v 1.74 c 0,0.38 -0.04,0.71 -0.04,0.71 h 0.04 c 0.45,-1.44 1.66,-2.59 3.2,-2.59 0.24,0 0.45,0.04 0.45,0.04 v 2.47 c 0,0 -0.26,-0.04 -0.59,-0.04 -1.07,0 -2.27,0.61 -2.74,2.11 -0.16,0.49 -0.22,1.05 -0.22,1.64 v 3.99 h -2.51 z" id="path27" /> <path class="st1" d="m 123.81,130.5 h 2.51 v 2.51 h -2.51 z" id="path29" /> <path class="st1" d="m 134.46,129.42 c 0,0 1.52,1.48 3.5,1.48 1.07,0 2.03,-0.55 2.03,-1.7 0,-2.51 -6.61,-2.07 -6.61,-6.38 0,-2.33 2.01,-4.07 4.7,-4.07 2.76,0 4.19,1.5 4.19,1.5 l -1.11,2.07 c 0,0 -1.34,-1.22 -3.1,-1.22 -1.18,0 -2.11,0.69 -2.11,1.68 0,2.49 6.59,1.88 6.59,6.36 0,2.23 -1.7,4.11 -4.62,4.11 -3.12,0 -4.84,-1.92 -4.84,-1.92 z" id="path31" /> <path class="st1" d="m 144.67,118.99 h 2.49 v 2.23 h -2.49 z m 0,3.95 h 2.51 v 10.07 h -2.51 z" id="path33" /> <path class="st1" d="m 149.92,122.94 h 2.41 v 1.17 c 0,0.38 -0.04,0.69 -0.04,0.69 h 0.04 c 0.49,-0.99 1.7,-2.09 3.28,-2.09 1.54,0 2.53,0.71 2.94,2.07 h 0.04 c 0.55,-1.09 1.86,-2.07 3.44,-2.07 2.09,0 3.3,1.18 3.3,3.83 v 6.48 h -2.51 v -6 c 0,-1.15 -0.22,-2.01 -1.38,-2.01 -1.28,0 -2.13,1.03 -2.43,2.29 -0.1,0.4 -0.12,0.83 -0.12,1.3 v 4.42 h -2.51 v -6 c 0,-1.09 -0.18,-2.01 -1.36,-2.01 -1.3,0 -2.15,1.03 -2.47,2.31 -0.1,0.38 -0.12,0.83 -0.12,1.28 v 4.42 h -2.51 z" id="path35" /> <path class="st1" d="m 167.93,122.94 h 2.29 v 0.73 c 0,0.38 -0.04,0.69 -0.04,0.69 h 0.04 c 0,0 0.87,-1.66 3.24,-1.66 2.73,0 4.46,2.15 4.46,5.27 0,3.2 -1.95,5.27 -4.6,5.27 -1.99,0 -2.88,-1.38 -2.88,-1.38 h -0.04 c 0,0 0.04,0.35 0.04,0.87 v 4.23 h -2.51 z m 4.94,8.2 c 1.38,0 2.53,-1.12 2.53,-3.12 0,-1.92 -1.03,-3.16 -2.51,-3.16 -1.3,0 -2.53,0.95 -2.53,3.18 0,1.56 0.85,3.1 2.51,3.1 z" id="path37" /> <path class="st1" d="m 179.84,118.99 h 2.49 v 10.5 c 0,1.11 0.38,1.38 1.03,1.38 0.2,0 0.38,-0.02 0.38,-0.02 v 2.19 c 0,0 -0.38,0.06 -0.79,0.06 -1.38,0 -3.1,-0.36 -3.1,-3.24 v -10.87 z" id="path39" /> <path class="st1" d="m 185.57,118.99 h 2.49 v 2.23 h -2.49 z m 0,3.95 h 2.51 v 10.07 h -2.51 z" id="path41" /> <path class="st1" d="m 197.67,124.94 h -3.83 v 8.08 h -2.51 v -8.08 h -1.24 v -1.99 h 1.24 v -0.3 c 0,-3.3 2.71,-3.73 4.11,-3.73 0.51,0 0.85,0.06 0.85,0.06 v 2.13 c 0,0 -0.22,-0.04 -0.51,-0.04 -0.71,0 -1.93,0.18 -1.93,1.64 v 0.24 h 6.34 v 10.07 h -2.51 v -8.08 z m 0,-5.95 h 2.49 v 2.23 h -2.49 z" id="path43" /> <path class="st1" d="m 207.33,122.71 c 2.9,0 4.46,2.11 4.46,4.78 0,0.3 -0.06,0.97 -0.06,0.97 h -6.95 c 0.16,1.76 1.52,2.67 3.02,2.67 1.62,0 2.9,-1.11 2.9,-1.11 l 0.97,1.8 c 0,0 -1.54,1.44 -4.05,1.44 -3.34,0 -5.41,-2.41 -5.41,-5.27 0.01,-3.11 2.12,-5.28 5.12,-5.28 z m 1.94,4.02 c -0.04,-1.36 -0.89,-2.09 -1.99,-2.09 -1.28,0 -2.17,0.79 -2.41,2.09 z" id="path45" /> <path class="st1" d="m 213.85,122.94 h 2.41 v 1.74 c 0,0.38 -0.04,0.71 -0.04,0.71 h 0.04 c 0.45,-1.44 1.66,-2.59 3.2,-2.59 0.24,0 0.45,0.04 0.45,0.04 v 2.47 c 0,0 -0.26,-0.04 -0.59,-0.04 -1.07,0 -2.27,0.61 -2.74,2.11 -0.16,0.49 -0.22,1.05 -0.22,1.64 v 3.99 h -2.51 z" id="path47" /> <path class="st1" d="m 220.8,130.5 h 2.51 v 2.51 h -2.51 z" id="path49" /> <path class="st1" d="m 231.13,118.99 h 5.41 c 2.63,0 4.46,1.84 4.46,4.56 0,2.73 -1.84,4.62 -4.46,4.62 h -2.86 v 4.84 h -2.55 z m 4.94,6.97 c 1.48,0 2.35,-0.95 2.35,-2.41 0,-1.44 -0.87,-2.37 -2.31,-2.37 h -2.43 v 4.78 z" id="path51" /> <path class="st1" d="m 247.96,126.69 h 0.34 v -0.14 c 0,-1.32 -0.83,-1.78 -1.93,-1.78 -1.44,0 -2.76,0.97 -2.76,0.97 l -0.95,-1.8 c 0,0 1.56,-1.24 3.95,-1.24 2.65,0 4.19,1.46 4.19,4.01 v 6.3 h -2.31 v -0.83 c 0,-0.4 0.04,-0.71 0.04,-0.71 h -0.04 c 0.02,0 -0.77,1.78 -3.06,1.78 -1.8,0 -3.42,-1.13 -3.42,-3.14 -0.02,-3.2 4.31,-3.42 5.95,-3.42 z m -1.92,4.6 c 1.32,0 2.27,-1.42 2.27,-2.65 v -0.24 h -0.43 c -1.28,0 -3.36,0.18 -3.36,1.58 0,0.68 0.5,1.31 1.52,1.31 z" id="path53" /> <path class="st1" d="m 253.37,122.94 h 2.41 v 1.74 c 0,0.38 -0.04,0.71 -0.04,0.71 h 0.04 c 0.45,-1.44 1.66,-2.59 3.2,-2.59 0.24,0 0.45,0.04 0.45,0.04 v 2.47 c 0,0 -0.26,-0.04 -0.59,-0.04 -1.07,0 -2.27,0.61 -2.74,2.11 -0.16,0.49 -0.22,1.05 -0.22,1.64 v 3.99 h -2.51 z" id="path55" /> <path class="st1" d="m 261.55,125.09 h -1.3 v -1.99 h 1.36 v -2.9 h 2.45 v 2.9 h 2.29 v 1.99 h -2.29 V 129 c 0,1.66 1.3,1.9 1.99,1.9 0.28,0 0.45,-0.04 0.45,-0.04 v 2.19 c 0,0 -0.3,0.06 -0.77,0.06 -1.4,0 -4.19,-0.41 -4.19,-3.79 v -4.23 z" id="path57" /> <path class="st1" d="m 273.65,126.69 h 0.34 v -0.14 c 0,-1.32 -0.83,-1.78 -1.94,-1.78 -1.44,0 -2.76,0.97 -2.76,0.97 l -0.95,-1.8 c 0,0 1.56,-1.24 3.95,-1.24 2.65,0 4.19,1.46 4.19,4.01 v 6.3 h -2.31 v -0.83 c 0,-0.4 0.04,-0.71 0.04,-0.71 h -0.04 c 0.02,0 -0.77,1.78 -3.06,1.78 -1.8,0 -3.42,-1.13 -3.42,-3.14 0,-3.2 4.32,-3.42 5.96,-3.42 z m -1.91,4.6 c 1.32,0 2.27,-1.42 2.27,-2.65 v -0.24 h -0.43 c -1.28,0 -3.36,0.18 -3.36,1.58 0,0.68 0.49,1.31 1.52,1.31 z" id="path59" /> <path class="st1" d="m 282.88,135.03 c 1.54,0 2.84,-0.65 2.84,-2.45 v -0.59 c 0,-0.24 0.04,-0.53 0.04,-0.53 h -0.04 c -0.59,0.89 -1.46,1.36 -2.8,1.36 -2.88,0 -4.52,-2.33 -4.52,-5.09 0,-2.76 1.56,-5.02 4.46,-5.02 2.19,0 2.98,1.28 2.98,1.28 h 0.06 c 0,0 -0.02,-0.12 -0.02,-0.28 v -0.77 h 2.35 v 9.46 c 0,3.46 -2.69,4.76 -5.31,4.76 -1.26,0 -2.61,-0.36 -3.57,-0.87 l 0.75,-1.92 c -0.01,0 1.25,0.66 2.78,0.66 z m 2.9,-7.29 c 0,-2.29 -1.13,-2.9 -2.49,-2.9 -1.52,0 -2.37,1.11 -2.37,2.8 0,1.76 0.91,3.06 2.53,3.06 1.2,0 2.33,-0.69 2.33,-2.96 z" id="path61" /> <path class="st1" d="m 295.38,122.71 c 2.9,0 4.46,2.11 4.46,4.78 0,0.3 -0.06,0.97 -0.06,0.97 h -6.95 c 0.16,1.76 1.52,2.67 3.02,2.67 1.62,0 2.9,-1.11 2.9,-1.11 l 0.97,1.8 c 0,0 -1.54,1.44 -4.05,1.44 -3.34,0 -5.41,-2.41 -5.41,-5.27 0,-3.11 2.12,-5.28 5.12,-5.28 z m 1.93,4.02 c -0.04,-1.36 -0.89,-2.09 -1.99,-2.09 -1.28,0 -2.17,0.79 -2.41,2.09 z" id="path63" /> <path class="st1" d="m 301.9,122.94 h 2.41 v 1.74 c 0,0.38 -0.04,0.71 -0.04,0.71 h 0.04 c 0.45,-1.44 1.66,-2.59 3.2,-2.59 0.24,0 0.45,0.04 0.45,0.04 v 2.47 c 0,0 -0.26,-0.04 -0.59,-0.04 -1.07,0 -2.27,0.61 -2.74,2.11 -0.16,0.49 -0.22,1.05 -0.22,1.64 v 3.99 h -2.51 z" id="path65" /> <path class="st1" d="m 308.85,130.5 h 2.51 v 2.51 h -2.51 z" id="path67" /> </g> </svg> 